<?xml version="1.0" encoding="utf-8"?>
<!-- Generator: Adobe Illustrator 23.1.1, SVG Export Plug-In . SVG Version: 6.00 Build 0)  -->
<svg version="1.1" id="Слой_1" xmlns="http://www.w3.org/2000/svg" xmlns:xlink="http://www.w3.org/1999/xlink" x="0px" y="0px"
	 viewBox="0 0 100 125" style="enable-background:new 0 0 100 125;" xml:space="preserve">
<title>58</title>
<path d="M53.2,56.1c0-1.4-2.3-2.9-4.5-4.2c-3-1.9-6.8-4.2-6.8-8.4c0-3.4,2.3-6.4,5.6-7.1v-2.7h4.9v2.8c3.4,1.1,5.6,4.2,5.6,7.7h-4.9
	c0-1.8-1.4-3.2-3.2-3.2c-0.5,0-3.2,0.1-3.2,2.5c0,1.4,2.3,2.9,4.5,4.2c3,1.9,6.8,4.2,6.8,8.4c0,3.4-2.3,6.4-5.6,7.1V66h-4.9v-2.8
	c-3.4-1.1-5.6-4.2-5.6-7.7h4.9c0,1.8,1.4,3.2,3.2,3.2C50.5,58.7,53.2,58.5,53.2,56.1z M50,25.7c13.4,0,24.2,10.8,24.2,24.2
	S63.4,74,50,74S25.8,63.2,25.8,49.8C25.8,36.5,36.7,25.7,50,25.7z M30.8,49.8c0,10.6,8.6,19.2,19.2,19.2s19.2-8.6,19.2-19.2
	S60.6,30.6,50,30.6C39.4,30.6,30.8,39.2,30.8,49.8z M36.2,19.7h46.7L76.5,26l3.5,3.5l12.3-12.3L80,5l-3.5,3.5l6.3,6.3H36.2V19.7z
	 M20.3,95l3.5-3.5l-6.6-6.6h46.7v-4.9H17.2l6.6-6.6l-3.5-3.5L7.7,82.4L20.3,95z"/>
</svg>
