<?xml version="1.0" encoding="utf-8"?>
<!-- Generator: Adobe Illustrator 23.1.1, SVG Export Plug-In . SVG Version: 6.00 Build 0)  -->
<svg version="1.1" id="Слой_1" xmlns="http://www.w3.org/2000/svg" xmlns:xlink="http://www.w3.org/1999/xlink" x="0px" y="0px"
	 viewBox="0 0 48 60" style="enable-background:new 0 0 48 60;" xml:space="preserve">
<g>
	<path d="M47.6,40.1H0.4c-0.1,0-0.3,0.1-0.3,0.3v7.4c0,0.1,0.1,0.3,0.3,0.3h47.2c0.1,0,0.3-0.1,0.3-0.3v-7.4
		C47.9,40.2,47.8,40.1,47.6,40.1z"/>
	<path d="M47.6,0.3h-10c-0.1,0-0.3,0.1-0.3,0.3v35.9c0,0.1,0.1,0.3,0.3,0.3h10c0.1,0,0.3-0.1,0.3-0.3V0.5
		C47.9,0.4,47.8,0.3,47.6,0.3z"/>
	<path d="M19,14.6c-0.1,0-0.3,0.1-0.3,0.3v21.5c0,0.1,0.1,0.3,0.3,0.3h10c0.1,0,0.3-0.1,0.3-0.3V14.8c0-0.1-0.1-0.3-0.3-0.3
		C29,14.6,19,14.6,19,14.6z"/>
	<path d="M0.4,36.6h10c0.1,0,0.3-0.1,0.3-0.3V22.7c0-0.1-0.1-0.3-0.3-0.3h-10c-0.1,0-0.3,0.1-0.3,0.3v13.7
		C0.1,36.5,0.2,36.6,0.4,36.6z"/>
	<path d="M1.7,15.4c0.1,0,0.3,0,0.4-0.1L30.6,7l-1.4,2.8c-0.4,0.7-0.1,1.6,0.7,2c0.2,0.1,0.4,0.2,0.7,0.2c0.6,0,1.1-0.3,1.4-0.8
		l3.2-6.4c0.2-0.4,0.2-0.8,0.1-1.2c-0.2-0.4-0.5-0.7-0.9-0.9l-6.4-2.5c-0.8-0.3-1.6,0.1-2,0.8c-0.3,0.8,0.1,1.7,0.9,2l2.9,1.2
		L1.2,12.5c-0.8,0.2-1.3,1.1-1,1.9C0.4,15,1,15.4,1.7,15.4z"/>
</g>
</svg>
