<!--?xml version="1.0" encoding="UTF-8" standalone="no"?-->

<svg version="1.1" xmlns="http://www.w3.org/2000/svg" xmlns:xlink="http://www.w3.org/1999/xlink" preserveAspectRatio="xMidYMid meet" viewBox="0 0 91 64" width="91" height="64" style=""><defs><path d="M89.65 63.7L89.65 59.12L89.93 52.56L89.45 44.35C89.45 44.35 89.45 44.35 89.45 44.35C89.12 39.53 88.44 34.73 87.42 30C87.4 29.89 87.34 29.63 87.25 29.2C86.91 28.14 86.7 27.47 86.62 27.21C85.31 23.08 83.64 19.08 81.63 15.24C81.41 14.83 82.23 16.39 81.63 15.24C80.91 13.87 80.03 12.6 78.99 11.46C78.18 10.57 77.73 10.07 77.03 9.3C75.65 7.78 74.07 6.44 72.34 5.34C71.36 4.71 70.9 4.41 69.89 3.76C68.28 2.74 66.48 2.05 64.59 1.74C63.43 1.56 65.17 1.84 64.59 1.74C60.72 1.12 56.78 0.94 52.86 1.21C51.46 1.31 54.04 1.13 52.86 1.21C48.2 1.54 43.57 2.28 39.04 3.43C38.79 3.49 38.16 3.65 37.15 3.9L30.35 6.4C28.35 7.43 27.11 8.07 26.61 8.33C24.18 9.58 21.87 11.06 19.73 12.76C18.62 13.65 20.38 12.25 19.73 12.76C16.03 15.71 12.8 19.19 10.14 23.1C9.36 24.24 10.94 21.92 10.14 23.1C7.56 26.89 5.36 30.93 3.58 35.16C3.23 35.99 2.35 38.08 0.95 41.4" id="bu5TSoBBk" class="liDoaHSp_0"></path></defs><g><g><g><g><use xlink:href="#bu5TSoBBk" opacity="1" fill-opacity="0" stroke="#e98e0c" stroke-width="2" stroke-opacity="1"></use></g></g></g></g><style data-made-with="vivus-instant">.liDoaHSp_0{stroke-dasharray:161 163;stroke-dashoffset:162;animation:liDoaHSp_draw 1666ms linear 0ms forwards;}@keyframes liDoaHSp_draw{100%{stroke-dashoffset:0;}}@keyframes liDoaHSp_fade{0%{stroke-opacity:1;}94.02985074626866%{stroke-opacity:1;}100%{stroke-opacity:0;}}</style></svg>