<!--?xml version="1.0" encoding="UTF-8" standalone="no"?-->

<svg version="1.1" xmlns="http://www.w3.org/2000/svg" xmlns:xlink="http://www.w3.org/1999/xlink" preserveAspectRatio="xMidYMid meet" viewBox="0 0 105 105" width="105" height="105" style=""><defs><path d="M16.58 0.5L119.5 0.5L119.5 139.5L16.58 139.5L16.58 0.5Z" id="a3OP2eCZCs" class="jFmsifzw_0"></path><path d="M102.48 103.5L102.48 63.94L101.24 46.05C100.63 40.6 99.96 36.23 99.23 32.93C98.14 27.97 97.85 27.38 97.47 26.24C97.09 25.1 96.74 24 96.33 23.11C95.41 21.08 95.43 21.18 93.84 18.42C92.26 15.65 91.46 13.96 89.17 10.97C86.03 6.87 84.24 4.74 80.76 3.5C79.3 2.98 73.83 1.25 71.47 1.26C67.85 1.27 60.09 1.46 48.19 1.82C24.81 2.53 5.18 19.61 1.23 42.66C1.23 42.66 1.23 42.66 1.23 42.66" id="cszgiYsi7" class="jFmsifzw_1"></path></defs><g><g><g></g><g><g><use xlink:href="#cszgiYsi7" opacity="1" fill-opacity="0" stroke="#fba10a" stroke-width="2" stroke-opacity="1"></use></g></g></g></g><style data-made-with="vivus-instant">.jFmsifzw_0{stroke-dasharray:484 486;stroke-dashoffset:485;animation:jFmsifzw_draw 1666ms linear 0ms forwards;}.jFmsifzw_1{stroke-dasharray:207 209;stroke-dashoffset:208;animation:jFmsifzw_draw 1666ms linear 833ms forwards;}@keyframes jFmsifzw_draw{100%{stroke-dashoffset:0;}}@keyframes jFmsifzw_fade{0%{stroke-opacity:1;}94.02985074626866%{stroke-opacity:1;}100%{stroke-opacity:0;}}</style></svg>