<!--?xml version="1.0" encoding="UTF-8" standalone="no"?-->

<svg version="1.1" xmlns="http://www.w3.org/2000/svg" xmlns:xlink="http://www.w3.org/1999/xlink" preserveAspectRatio="xMidYMid meet" viewBox="0 0 57 41" width="57" height="41" style=""><defs><path d="M55.94 28.45L55.99 25.97L55.85 21.78C55.83 21.01 55.82 20.53 55.81 20.34C55.78 19.06 55.64 17.78 55.4 16.51C55.33 16.11 55.57 17.41 55.53 17.16C55.2 15.42 54.56 13.74 53.63 12.23C53.46 11.97 53.06 11.31 52.41 10.25L49.33 6.83C47.49 5.38 46.34 4.47 45.88 4.1C44.76 3.21 43.46 2.56 42.08 2.19C41.7 2.08 42.5 2.3 42.08 2.19C40.83 1.84 39.54 1.67 38.24 1.67C37.79 1.67 36.66 1.67 34.86 1.67C31.63 1.85 29.62 1.95 28.81 2C28.38 2.02 27.95 2.09 27.53 2.2C26.91 2.37 27.65 2.17 27.53 2.2C25.49 2.75 23.53 3.57 21.7 4.64C21.42 4.81 22.25 4.32 21.7 4.64C20.76 5.19 19.86 5.82 19.02 6.52C18.71 6.77 17.92 7.42 16.67 8.46L13.59 11.81C13.35 12.14 13.2 12.34 13.14 12.42C11.7 14.39 10.45 16.48 9.41 18.68C9.3 18.9 10.16 17.09 9.96 17.52C9.25 19.02 8.66 20.57 8.21 22.16C8.04 22.74 7.64 24.17 6.99 26.46L5.1 37.31L11.42 28.45L5.36 37.16L1.01 30.75" id="at6SaKkQn" class="XQVjczCT_0"></path></defs><g><g><g><g><use xlink:href="#at6SaKkQn" opacity="1" fill-opacity="0" stroke="#f89d04" stroke-width="2" stroke-opacity="1"></use></g></g></g></g><style data-made-with="vivus-instant">.XQVjczCT_0{stroke-dasharray:127 129;stroke-dashoffset:128;animation:XQVjczCT_draw 1666ms linear 0ms forwards;}@keyframes XQVjczCT_draw{100%{stroke-dashoffset:0;}}@keyframes XQVjczCT_fade{0%{stroke-opacity:1;}94.02985074626866%{stroke-opacity:1;}100%{stroke-opacity:0;}}</style></svg>