<?xml version="1.0" encoding="utf-8"?>
<!-- Generator: Adobe Illustrator 23.1.1, SVG Export Plug-In . SVG Version: 6.00 Build 0)  -->
<svg version="1.1" id="Слой_1" xmlns="http://www.w3.org/2000/svg" xmlns:xlink="http://www.w3.org/1999/xlink" x="0px" y="0px"
	 viewBox="0 0 1920 1080" style="enable-background:new 0 0 1920 1080;" xml:space="preserve">
<style type="text/css">
	.st0{fill:#010202;}
	.st1{fill:none;stroke:#000000;stroke-width:2;stroke-miterlimit:10;}
	.st2{fill:none;}
	.st3{fill-rule:evenodd;clip-rule:evenodd;}
</style>
<rect y="376.3" class="st0" width="1223.7" height="2"/>
<rect x="621.1" y="542.4" class="st0" width="597.6" height="2"/>
<path class="st1" d="M1212.7,543.4c3.7,0,7.3,0,11,0c65,0,117.7-37.4,117.7-83.5s-52.7-82.5-117.7-82.5c-6.3,0-10.4-0.2-18.6,0"/>
<path class="st1" d="M630.7,543.5c-73-2.7-117.7,37.2-117.7,83.4"/>
<rect x="512" y="626.8" class="st0" width="1.9" height="90.3"/>
<g>
	<g>
		<g>
			<g>
				<g>
					<g>
						<path class="st2" d="M1384.5,459c-0.1-4.8-0.3-9.6-1.1-14.3l-14.8,2.2c0.7,4,0.8,8,0.9,12.1H1384.5z"/>
					</g>
					<path class="st3" d="M1376,449.2l1.5-0.2c0-0.8-0.2-1.6-0.3-2.5l-1.5,0.2C1375.7,447.6,1375.9,448.4,1376,449.2z"/>
					<polygon class="st3" points="1376.3,453.6 1377.8,453.5 1377.6,451 1376.1,451.2 					"/>
					<polygon class="st3" points="1376.5,458 1378,458 1377.9,455.5 1376.4,455.5 					"/>
				</g>
			</g>
			<g>
				<g>
					<g>
						<path class="st2" d="M1383.4,444.7c-0.7-4.7-1.8-9.4-3.1-14l-14.3,4.4c1.1,3.9,2.1,7.8,2.7,11.8L1383.4,444.7z"/>
					</g>
					<polygon class="st3" points="1373.5,436.3 1375,435.9 1374.3,433.5 1372.9,434 					"/>
					<path class="st3" d="M1374.5,440.6l1.5-0.3c-0.2-0.8-0.3-1.6-0.5-2.4l-1.5,0.4C1374.2,439,1374.4,439.8,1374.5,440.6z"/>
					<path class="st3" d="M1375.4,444.9l1.5-0.2c-0.1-0.8-0.2-1.6-0.4-2.4l-1.5,0.3C1375.1,443.3,1375.2,444.1,1375.4,444.9z"/>
				</g>
			</g>
			<g>
				<g>
					<g>
						<path class="st2" d="M1380.3,430.7c-0.8-2.3-1.4-4.6-2.4-6.8c-0.4-1.1-0.9-2.2-1.3-3.3l-1.5-3.3l-13.5,6.4l1.3,2.8
							c0.4,0.9,0.7,1.9,1.1,2.8c0.8,1.9,1.4,3.8,2,5.7L1380.3,430.7z"/>
					</g>
					<polygon class="st3" points="1369.3,423.9 1370.6,423.3 1369.6,421 1368.2,421.7 					"/>
					<polygon class="st3" points="1370.9,427.9 1372.3,427.4 1371.4,425.1 1370,425.7 					"/>
					<polygon class="st3" points="1372.3,432.1 1373.7,431.6 1373,429.3 1371.5,429.8 					"/>
				</g>
			</g>
			<g>
				<g>
					<g>
						<path class="st2" d="M1375.1,417.3c-0.5-1.1-1-2.1-1.6-3.2c-0.6-1.1-1.1-2.1-1.7-3.2c-1.2-2-2.4-4.1-3.7-6.1l-12.5,8.3
							c1.2,1.7,2.1,3.5,3.2,5.2c0.5,0.9,0.9,1.8,1.4,2.7c0.5,0.9,1,1.8,1.4,2.7L1375.1,417.3z"/>
					</g>
					<path class="st3" d="M1363.2,412.2l1.3-0.8c-0.4-0.7-0.8-1.4-1.3-2.1l-1.3,0.8C1362.4,410.8,1362.8,411.5,1363.2,412.2z"/>
					<path class="st3" d="M1365.4,416l1.3-0.7c-0.4-0.7-0.8-1.4-1.2-2.2l-1.3,0.8C1364.6,414.6,1365,415.3,1365.4,416z"/>
					<path class="st3" d="M1367.4,419.9l1.3-0.7c-0.4-0.7-0.8-1.5-1.1-2.2l-1.3,0.7C1366.7,418.4,1367.1,419.1,1367.4,419.9z"/>
				</g>
			</g>
			<g>
				<g>
					<g>
						<polygon class="st2" points="1368.1,404.9 1366.1,401.9 1364,399.1 1362.9,397.7 1361.8,396.3 1359.5,393.6 1348.2,403.4 
							1350.1,405.8 1351.1,406.9 1352,408.2 1353.9,410.6 1355.6,413.2 						"/>
					</g>
					<polygon class="st3" points="1355.6,401.4 1356.8,400.5 1355.2,398.6 1354,399.6 					"/>
					<polygon class="st3" points="1358.3,404.9 1359.5,404 1358,402 1356.8,403 					"/>
					<path class="st3" d="M1360.8,408.5l1.2-0.8c-0.5-0.7-0.9-1.4-1.4-2.1l-1.2,0.9C1359.9,407.1,1360.4,407.8,1360.8,408.5z"/>
				</g>
			</g>
			<g>
				<g>
					<g>
						<path class="st2" d="M1359.5,393.6c-3.2-3.5-6.4-7-10-10.1l-10,11.2c3.1,2.7,5.9,5.7,8.7,8.7L1359.5,393.6z"/>
					</g>
					<path class="st3" d="M1346.7,391.8l1-1.1c-0.6-0.6-1.2-1.1-1.8-1.7l-1,1.1C1345.5,390.7,1346.1,391.2,1346.7,391.8z"/>
					<polygon class="st3" points="1349.8,394.9 1350.9,393.8 1349.1,392.1 1348.1,393.1 					"/>
					<polygon class="st3" points="1352.8,398.1 1353.9,397.1 1352.2,395.3 1351.1,396.3 					"/>
				</g>
			</g>
			<g>
				<g>
					<g>
						<path class="st2" d="M1349.5,383.5c-3.5-3.2-7.2-6-11-8.8l-8.6,12.3c3.3,2.4,6.6,4.9,9.7,7.7L1349.5,383.5z"/>
					</g>
					<polygon class="st3" points="1336.6,383.3 1337.5,382.1 1335.5,380.6 1334.6,381.8 					"/>
					<polygon class="st3" points="1340.1,386 1341,384.8 1339.1,383.2 1338.2,384.4 					"/>
					<path class="st3" d="M1343.4,388.8l1-1.1c-0.6-0.5-1.2-1.1-1.9-1.6l-1,1.1C1342.2,387.7,1342.8,388.3,1343.4,388.8z"/>
				</g>
			</g>
			<g>
				<g>
					<g>
						<path class="st2" d="M1338.5,374.7c-3.9-2.6-7.8-5.2-12-7.4l-7.2,13.2c3.7,1.9,7.1,4.2,10.5,6.5L1338.5,374.7z"/>
					</g>
					<path class="st3" d="M1325.6,376l0.8-1.3c-0.7-0.4-1.4-0.8-2.2-1.2l-0.7,1.3C1324.2,375.2,1325,375.5,1325.6,376z"/>
					<polygon class="st3" points="1329.4,378.3 1330.2,377 1328.1,375.7 1327.3,377 					"/>
					<polygon class="st3" points="1333,380.7 1333.9,379.5 1331.8,378.1 1331,379.3 					"/>
				</g>
			</g>
			<g>
				<g>
					<g>
						<path class="st2" d="M1326.5,367.3c-1-0.6-2-1.1-3.1-1.7l-3.2-1.5c-2.1-1.1-4.3-1.9-6.4-2.9l-5.8,13.8
							c1.9,0.9,3.8,1.6,5.7,2.6l2.8,1.4c0.9,0.5,1.8,1,2.7,1.5L1326.5,367.3z"/>
					</g>
					<polygon class="st3" points="1313.9,370 1314.5,368.6 1312.3,367.6 1311.7,369 					"/>
					<polygon class="st3" points="1317.9,371.8 1318.6,370.5 1316.3,369.4 1315.7,370.8 					"/>
					<path class="st3" d="M1321.8,373.8l0.7-1.3c-0.7-0.4-1.4-0.8-2.2-1.2l-0.7,1.3C1320.4,373,1321.1,373.5,1321.8,373.8z"/>
				</g>
			</g>
			<g>
				<g>
					<g>
						<path class="st2" d="M1313.9,361.2c-2.2-0.9-4.4-1.7-6.5-2.5c-2.2-0.7-4.4-1.5-6.7-2.2l-4.3,14.4c2,0.6,4,1.3,5.9,1.9
							c1.9,0.7,3.9,1.5,5.8,2.2L1313.9,361.2z"/>
					</g>
					<path class="st3" d="M1301.6,365.2l0.5-1.4c-0.8-0.3-1.6-0.5-2.4-0.8l-0.4,1.4C1300.1,364.7,1300.8,365,1301.6,365.2z"/>
					<path class="st3" d="M1305.8,366.6l0.5-1.4c-0.8-0.3-1.6-0.6-2.3-0.8l-0.5,1.4C1304.2,366.1,1305,366.3,1305.8,366.6z"/>
					<polygon class="st3" points="1309.9,368.2 1310.4,366.8 1308.1,365.9 1307.6,367.3 					"/>
				</g>
			</g>
			<g>
				<g>
					<g>
						<path class="st2" d="M1300.7,356.5c-2.2-0.6-4.5-1.3-6.8-1.8l-3.4-0.8l-3.4-0.7l-2.9,14.7l3.1,0.6l3,0.7c2,0.4,4,1.1,6,1.6
							L1300.7,356.5z"/>
					</g>
					<path class="st3" d="M1288.9,361.7l0.3-1.5c-0.8-0.2-1.6-0.3-2.4-0.5l-0.3,1.5C1287.3,361.4,1288.1,361.5,1288.9,361.7z"/>
					<polygon class="st3" points="1293.2,362.7 1293.6,361.3 1291.1,360.7 1290.8,362.2 					"/>
					<polygon class="st3" points="1297.4,363.9 1297.8,362.5 1295.4,361.8 1295,363.2 					"/>
				</g>
			</g>
			<g>
				<g>
					<g>
						<path class="st2" d="M1287.1,353.2c-2.3-0.5-4.6-0.8-6.9-1.2c-2.3-0.4-4.6-0.6-6.9-0.8l-1.4,14.9c2.1,0.2,4.2,0.4,6.2,0.7
							c2.1,0.3,4.1,0.6,6.2,1L1287.1,353.2z"/>
					</g>
					<polygon class="st3" points="1275.9,359.5 1276.1,358 1273.6,357.8 1273.5,359.3 					"/>
					<polygon class="st3" points="1280.3,360.1 1280.5,358.6 1278,358.3 1277.8,359.8 					"/>
					<path class="st3" d="M1284.6,360.9l0.3-1.5c-0.8-0.2-1.6-0.3-2.4-0.4l-0.2,1.5C1283,360.5,1283.8,360.7,1284.6,360.9z"/>
				</g>
			</g>
			<g>
				<g>
					<g>
						<path class="st2" d="M1273.3,351.2c-2.3-0.3-4.6-0.3-7-0.5c-2.3-0.1-4.6-0.1-7-0.2v15c2.1,0.1,4.2,0.1,6.3,0.2
							c2.1,0.2,4.2,0.2,6.2,0.5L1273.3,351.2z"/>
					</g>
					<polygon class="st3" points="1262.8,358.6 1262.8,357.1 1260.3,357 1260.3,358.5 					"/>
					<path class="st3" d="M1267.1,358.8l0.1-1.5c-0.8,0-1.6-0.1-2.5-0.1l-0.1,1.5C1265.5,358.6,1266.3,358.7,1267.1,358.8z"/>
					<polygon class="st3" points="1271.5,359.1 1271.6,357.6 1269.2,357.4 1269.1,358.9 					"/>
				</g>
			</g>
		</g>
	</g>
</g>
<g>
	<g>
		<g>
			<g>
				<g>
					<g>
						<path class="st2" d="M1259.3,568.7c2.3-0.1,4.7-0.1,7-0.2c2.3-0.2,4.7-0.3,7-0.5l-1.5-14.9c-2.1,0.2-4.2,0.3-6.3,0.5
							c-2.1,0.1-4.2,0.1-6.3,0.2V568.7z"/>
					</g>
					<path class="st3" d="M1269.1,560.3l0.1,1.5c0.8-0.1,1.7-0.1,2.5-0.2l-0.1-1.5C1270.8,560.2,1270,560.2,1269.1,560.3z"/>
					<path class="st3" d="M1264.7,560.5l0.1,1.5c0.8,0,1.7-0.1,2.5-0.1l-0.1-1.5C1266.4,560.4,1265.6,560.5,1264.7,560.5z"/>
					<polygon class="st3" points="1260.3,560.6 1260.3,562.1 1262.8,562.1 1262.8,560.6 					"/>
				</g>
			</g>
			<g>
				<g>
					<g>
						<path class="st2" d="M1273.3,568c2.3-0.3,4.7-0.5,7-0.9l3.5-0.5c1.2-0.2,2.3-0.4,3.5-0.7l-2.9-14.7c-1,0.2-2,0.4-3.1,0.6
							l-3.1,0.5c-2.1,0.4-4.2,0.5-6.2,0.8L1273.3,568z"/>
					</g>
					<path class="st3" d="M1282.3,558.7l0.3,1.5c0.8-0.1,1.6-0.3,2.4-0.5l-0.3-1.5C1283.9,558.4,1283.1,558.6,1282.3,558.7z"/>
					<polygon class="st3" points="1277.9,559.4 1278.1,560.8 1280.6,560.5 1280.4,559 					"/>
					<polygon class="st3" points="1273.6,559.9 1273.7,561.4 1276.2,561.1 1276,559.6 					"/>
				</g>
			</g>
			<g>
				<g>
					<g>
						<path class="st2" d="M1287.2,565.9c1.1-0.2,2.3-0.4,3.4-0.7l3.4-0.8c2.3-0.5,4.5-1.2,6.8-1.9l-4.4-14.3c-2,0.6-4,1.2-6,1.7
							l-3,0.8c-1,0.2-2,0.4-3.1,0.6L1287.2,565.9z"/>
					</g>
					<polygon class="st3" points="1295.2,555.8 1295.6,557.2 1298,556.5 1297.6,555.1 					"/>
					<polygon class="st3" points="1290.9,556.9 1291.3,558.3 1293.7,557.7 1293.3,556.3 					"/>
					<path class="st3" d="M1286.6,557.8l0.3,1.5c0.8-0.2,1.6-0.3,2.4-0.5l-0.3-1.5C1288.3,557.5,1287.4,557.7,1286.6,557.8z"/>
				</g>
			</g>
			<g>
				<g>
					<g>
						<path class="st2" d="M1300.9,562.5c2.3-0.7,4.5-1.5,6.7-2.2c2.2-0.9,4.4-1.7,6.5-2.6l-5.9-13.8c-1.9,0.8-3.9,1.5-5.8,2.3
							c-2,0.7-3.9,1.4-5.9,2L1300.9,562.5z"/>
					</g>
					<polygon class="st3" points="1307.8,551.5 1308.3,552.9 1310.6,552 1310,550.7 					"/>
					<path class="st3" d="M1303.6,553.1l0.5,1.4c0.8-0.3,1.6-0.5,2.3-0.8l-0.5-1.4C1305.2,552.6,1304.4,552.8,1303.6,553.1z"/>
					<polygon class="st3" points="1299.5,554.5 1299.9,555.9 1302.3,555.2 1301.8,553.7 					"/>
				</g>
			</g>
			<g>
				<g>
					<g>
						<path class="st2" d="M1314.1,557.6c2.1-1,4.3-1.9,6.4-2.9l3.2-1.6c1-0.6,2.1-1.1,3.1-1.7l-7.3-13.1l-2.7,1.5l-2.8,1.4
							c-1.8,1-3.8,1.7-5.7,2.6L1314.1,557.6z"/>
					</g>
					<path class="st3" d="M1319.8,546.1l0.7,1.3c0.7-0.4,1.5-0.8,2.2-1.2l-0.7-1.3C1321.2,545.3,1320.5,545.7,1319.8,546.1z"/>
					<polygon class="st3" points="1315.9,548 1316.5,549.4 1318.7,548.3 1318.1,546.9 					"/>
					<polygon class="st3" points="1311.9,549.9 1312.5,551.2 1314.7,550.2 1314.1,548.9 					"/>
				</g>
			</g>
			<g>
				<g>
					<g>
						<path class="st2" d="M1326.7,551.4c4.1-2.3,8.1-4.9,11.9-7.6l-8.7-12.2c-3.4,2.4-6.9,4.7-10.5,6.7L1326.7,551.4z"/>
					</g>
					<polygon class="st3" points="1331.2,539.3 1332,540.5 1334.1,539.1 1333.2,537.9 					"/>
					<polygon class="st3" points="1327.5,541.7 1328.3,542.9 1330.4,541.6 1329.5,540.4 					"/>
					<path class="st3" d="M1323.7,543.9l0.7,1.3c0.7-0.4,1.5-0.8,2.1-1.3l-0.8-1.3C1325.1,543.1,1324.4,543.5,1323.7,543.9z"/>
				</g>
			</g>
			<g>
				<g>
					<g>
						<path class="st2" d="M1338.7,543.8c3.8-2.8,7.5-5.7,11-8.9l-10.1-11.1c-3,2.8-6.3,5.4-9.6,7.8L1338.7,543.8z"/>
					</g>
					<path class="st3" d="M1341.7,531.3l1,1.1c0.7-0.5,1.2-1.1,1.9-1.7l-1-1.1C1342.9,530.2,1342.3,530.8,1341.7,531.3z"/>
					<polygon class="st3" points="1338.3,534.1 1339.2,535.3 1341.2,533.7 1340.2,532.5 					"/>
					<polygon class="st3" points="1334.8,536.7 1335.7,537.9 1337.7,536.4 1336.8,535.2 					"/>
				</g>
			</g>
			<g>
				<g>
					<g>
						<path class="st2" d="M1349.7,534.9c3.5-3.2,6.8-6.6,9.9-10.2l-11.4-9.7c-2.7,3.1-5.5,6.1-8.6,8.9L1349.7,534.9z"/>
					</g>
					<polygon class="st3" points="1351.2,522.1 1352.3,523.1 1354,521.2 1352.8,520.2 					"/>
					<polygon class="st3" points="1348.2,525.2 1349.2,526.3 1351,524.5 1349.9,523.5 					"/>
					<path class="st3" d="M1345,528.3l1,1.1c0.6-0.6,1.2-1.1,1.8-1.7l-1-1.1C1346.2,527.2,1345.6,527.8,1345,528.3z"/>
				</g>
			</g>
			<g>
				<g>
					<g>
						<path class="st2" d="M1359.6,524.7c1.5-1.9,3.1-3.6,4.4-5.6l2.1-2.9l2-3l-12.6-8.2l-1.7,2.6l-1.8,2.5
							c-1.2,1.7-2.6,3.2-3.8,4.8L1359.6,524.7z"/>
					</g>
					<polygon class="st3" points="1359.5,511.8 1360.7,512.6 1362.1,510.5 1360.9,509.7 					"/>
					<polygon class="st3" points="1356.9,515.3 1358.1,516.2 1359.5,514.2 1358.3,513.3 					"/>
					<polygon class="st3" points="1354.1,518.7 1355.3,519.7 1356.8,517.8 1355.7,516.8 					"/>
				</g>
			</g>
			<g>
				<g>
					<g>
						<path class="st2" d="M1368.1,513.3l1-1.5l0.9-1.5l1.8-3.1c0.6-1,1.1-2.1,1.7-3.2c0.6-1.1,1.1-2.1,1.6-3.2l-13.6-6.4
							c-0.4,0.9-0.9,1.8-1.4,2.7c-0.5,0.9-0.9,1.8-1.4,2.7l-1.6,2.6l-0.8,1.3l-0.9,1.3L1368.1,513.3z"/>
					</g>
					<path class="st3" d="M1366.3,500.4l1.3,0.7c0.4-0.7,0.8-1.5,1.1-2.2l-1.4-0.7C1367.1,499,1366.7,499.7,1366.3,500.4z"/>
					<path class="st3" d="M1364.2,504.3l1.3,0.7c0.4-0.7,0.9-1.4,1.2-2.2l-1.3-0.7C1365.1,502.9,1364.6,503.6,1364.2,504.3z"/>
					<path class="st3" d="M1361.9,508.1l1.3,0.8c0.5-0.7,0.9-1.4,1.3-2.1l-1.3-0.8C1362.8,506.7,1362.4,507.4,1361.9,508.1z"/>
				</g>
			</g>
			<g>
				<g>
					<g>
						<path class="st2" d="M1375.1,500.8l1.5-3.3c0.5-1.1,0.9-2.2,1.3-3.3c0.9-2.2,1.6-4.5,2.4-6.8l-14.3-4.4
							c-0.6,1.9-1.2,3.9-2,5.8c-0.4,0.9-0.7,1.9-1.1,2.8l-1.3,2.8L1375.1,500.8z"/>
					</g>
					<polygon class="st3" points="1371.5,488.3 1373,488.8 1373.7,486.4 1372.3,486 					"/>
					<polygon class="st3" points="1370,492.4 1371.4,493 1372.3,490.6 1370.9,490.1 					"/>
					<polygon class="st3" points="1368.3,496.4 1369.6,497.1 1370.6,494.8 1369.3,494.2 					"/>
				</g>
			</g>
			<g>
				<g>
					<g>
						<path class="st2" d="M1380.3,487.4c0.4-1.1,0.6-2.3,1-3.5c0.3-1.2,0.7-2.3,0.9-3.5c0.5-2.4,1-4.7,1.3-7.1l-14.8-2.2
							c-0.2,2-0.7,4-1.1,6c-0.2,1-0.5,2-0.7,3c-0.3,1-0.5,2-0.8,2.9L1380.3,487.4z"/>
					</g>
					<path class="st3" d="M1374.9,475.5l1.5,0.3c0.2-0.8,0.3-1.6,0.4-2.5l-1.5-0.2C1375.2,473.9,1375.1,474.7,1374.9,475.5z"/>
					<path class="st3" d="M1374,479.8l1.5,0.4c0.2-0.8,0.3-1.6,0.5-2.4l-1.5-0.3C1374.4,478.2,1374.2,479,1374,479.8z"/>
					<polygon class="st3" points="1372.9,484.1 1374.3,484.5 1375,482.1 1373.5,481.7 					"/>
				</g>
			</g>
			<g>
				<g>
					<g>
						<path class="st2" d="M1383.4,473.3c0.8-4.7,1-9.6,1.1-14.4h-15c-0.1,4.1-0.3,8.1-0.9,12.1L1383.4,473.3z"/>
					</g>
					<polygon class="st3" points="1376.4,462.4 1377.9,462.5 1378,460 1376.5,459.9 					"/>
					<polygon class="st3" points="1376.1,466.8 1377.6,466.9 1377.8,464.4 1376.3,464.3 					"/>
					<path class="st3" d="M1375.6,471.2l1.5,0.2c0.1-0.8,0.3-1.6,0.3-2.5l-1.5-0.2C1375.9,469.5,1375.7,470.3,1375.6,471.2z"/>
				</g>
			</g>
		</g>
	</g>
</g>
<g>
	<g>
		<g>
			<g>
				<g>
					<g>
						<path class="st2" d="M487.6,633.6c0.1-2.2,0.1-4.4,0.2-6.5c0.2-2.2,0.3-4.3,0.6-6.5l-14.9-1.8c-0.4,2.5-0.5,4.9-0.7,7.4
							c-0.2,2.5-0.2,4.9-0.2,7.4H487.6z"/>
					</g>
					<path class="st3" d="M480,623.2l1.5,0.1c0.1-0.9,0.1-1.7,0.2-2.6l-1.5-0.2C480.2,621.5,480.1,622.4,480,623.2z"/>
					<path class="st3" d="M479.7,627.9l1.5,0.1c0-0.9,0.1-1.7,0.2-2.6l-1.5-0.1C479.8,626.2,479.7,627,479.7,627.9z"/>
					<polygon class="st3" points="479.6,632.6 481.1,632.6 481.1,630 479.6,630 					"/>
				</g>
			</g>
			<g>
				<g>
					<g>
						<path class="st2" d="M488.4,620.6l0.4-3.2l0.6-3.2c0.3-2.2,0.9-4.3,1.4-6.4l-14.6-3.6c-0.6,2.4-1.2,4.8-1.5,7.3
							c-0.2,1.2-0.4,2.4-0.6,3.7l-0.5,3.7L488.4,620.6z"/>
					</g>
					<polygon class="st3" points="482.1,609.4 483.6,609.7 484.1,607.2 482.7,606.9 					"/>
					<polygon class="st3" points="481.2,614 482.7,614.2 483.2,611.7 481.7,611.4 					"/>
					<polygon class="st3" points="480.5,618.6 482,618.8 482.4,616.2 480.9,616 					"/>
				</g>
			</g>
			<g>
				<g>
					<g>
						<path class="st2" d="M490.7,607.8c0.2-1.1,0.5-2.1,0.8-3.2l0.9-3.1l1-3.1c0.3-1,0.7-2.1,1.1-3.1l-14-5.3
							c-0.5,1.1-0.9,2.3-1.3,3.5l-1.2,3.5l-1,3.6c-0.3,1.2-0.7,2.4-1,3.6L490.7,607.8z"/>
					</g>
					<path class="st3" d="M485.8,595.9l1.4,0.5c0.3-0.8,0.5-1.6,0.8-2.4l-1.4-0.5C486.4,594.2,486.1,595.1,485.8,595.9z"/>
					<path class="st3" d="M484.4,600.3l1.4,0.4c0.2-0.8,0.5-1.6,0.8-2.5l-1.4-0.5C484.9,598.7,484.6,599.5,484.4,600.3z"/>
					<path class="st3" d="M483.1,604.8l1.5,0.4c0.2-0.8,0.5-1.6,0.7-2.5l-1.4-0.4C483.6,603.1,483.4,604,483.1,604.8z"/>
				</g>
			</g>
			<g>
				<g>
					<g>
						<path class="st2" d="M494.6,595.3c0.8-2,1.6-4.1,2.5-6c0.5-1,0.9-2,1.4-3l1.5-2.9l-13.3-7l-1.7,3.3c-0.6,1.1-1,2.3-1.6,3.4
							c-1.1,2.2-2,4.6-2.9,6.9L494.6,595.3z"/>
					</g>
					<polygon class="st3" points="491.2,582.9 492.5,583.6 493.7,581.3 492.4,580.6 					"/>
					<polygon class="st3" points="489.2,587.2 490.6,587.8 491.7,585.4 490.3,584.8 					"/>
					<polygon class="st3" points="487.5,591.5 488.9,592 489.8,589.6 488.4,589.1 					"/>
				</g>
			</g>
			<g>
				<g>
					<g>
						<path class="st2" d="M499.9,583.4c0.5-1,1-1.9,1.6-2.9l1.6-2.8l1.8-2.7c0.6-0.9,1.2-1.8,1.8-2.7l-12.3-8.5
							c-0.7,1-1.4,2.1-2.1,3.1l-2,3.1l-1.9,3.2c-0.6,1.1-1.2,2.1-1.8,3.3L499.9,583.4z"/>
					</g>
					<path class="st3" d="M498.1,570.7l1.3,0.8c0.5-0.7,0.9-1.4,1.4-2.2l-1.2-0.8C499,569.3,498.5,570,498.1,570.7z"/>
					<path class="st3" d="M495.6,574.7l1.3,0.8c0.4-0.7,0.9-1.5,1.3-2.2l-1.3-0.8C496.5,573.2,496,573.9,495.6,574.7z"/>
					<path class="st3" d="M493.3,578.7l1.3,0.7c0.4-0.8,0.8-1.5,1.3-2.2l-1.3-0.7C494.2,577.2,493.7,578,493.3,578.7z"/>
				</g>
			</g>
			<g>
				<g>
					<g>
						<path class="st2" d="M506.7,572.3c1.3-1.8,2.5-3.6,3.9-5.2c0.7-0.8,1.3-1.7,2-2.5l2.1-2.5l-11.2-9.9l-2.4,2.8
							c-0.8,0.9-1.5,1.9-2.3,2.9c-1.6,1.9-3,4-4.4,6L506.7,572.3z"/>
					</g>
					<polygon class="st3" points="506.4,559.4 507.5,560.4 509.2,558.4 508.1,557.5 					"/>
					<polygon class="st3" points="503.5,563.1 504.6,564 506.2,562 505.1,561 					"/>
					<polygon class="st3" points="500.7,566.8 501.9,567.7 503.4,565.6 502.2,564.7 					"/>
				</g>
			</g>
			<g>
				<g>
					<g>
						<path class="st2" d="M514.7,562c0.7-0.8,1.5-1.6,2.2-2.4l2.3-2.4l2.4-2.3c0.8-0.8,1.6-1.5,2.4-2.2l-9.9-11.2
							c-1,0.8-1.8,1.7-2.7,2.5l-2.7,2.6l-2.6,2.7c-0.9,0.9-1.7,1.8-2.5,2.7L514.7,562z"/>
					</g>
					<path class="st3" d="M516,549.2l1,1.1c0.6-0.6,1.2-1.2,1.9-1.8l-1-1.1C517.2,548,516.6,548.6,516,549.2z"/>
					<polygon class="st3" points="512.6,552.5 513.7,553.5 514.6,552.6 515.5,551.7 514.5,550.7 513.5,551.6 					"/>
					<path class="st3" d="M509.4,555.9l1.1,1c0.6-0.6,1.2-1.2,1.8-1.9l-1.1-1C510.6,554.6,510,555.2,509.4,555.9z"/>
				</g>
			</g>
			<g>
				<g>
					<g>
						<path class="st2" d="M524,552.8l2.5-2.1c0.8-0.7,1.7-1.4,2.5-2c1.7-1.4,3.5-2.6,5.2-3.9l-8.5-12.3c-2,1.4-4.1,2.8-6,4.4
							c-1,0.8-2,1.5-2.9,2.3l-2.8,2.4L524,552.8z"/>
					</g>
					<polygon class="st3" points="526.7,540.2 527.6,541.4 529.7,540 528.8,538.7 					"/>
					<polygon class="st3" points="523,543.1 524,544.3 526,542.7 525.1,541.5 					"/>
					<polygon class="st3" points="519.5,546.1 520.4,547.2 522.4,545.5 521.4,544.4 					"/>
				</g>
			</g>
			<g>
				<g>
					<g>
						<path class="st2" d="M534.2,544.7c0.9-0.7,1.8-1.2,2.7-1.8l2.7-1.8l2.8-1.6c0.9-0.6,1.9-1.1,2.9-1.6l-7-13.3
							c-1.1,0.5-2.2,1.2-3.3,1.8l-3.2,1.9l-3.1,2c-1,0.7-2.1,1.3-3.1,2.1L534.2,544.7z"/>
					</g>
					<path class="st3" d="M538.5,532.6l0.7,1.3c0.7-0.4,1.5-0.9,2.2-1.3l-0.7-1.3C540,531.7,539.2,532.2,538.5,532.6z"/>
					<path class="st3" d="M534.4,535l0.8,1.3c0.7-0.5,1.5-0.9,2.2-1.3l-0.8-1.3C535.9,534.1,535.2,534.5,534.4,535z"/>
					<path class="st3" d="M530.5,537.5l0.8,1.2c0.7-0.5,1.4-0.9,2.2-1.4l-0.8-1.3C532,536.6,531.3,537,530.5,537.5z"/>
				</g>
			</g>
			<g>
				<g>
					<g>
						<path class="st2" d="M545.4,538l2.9-1.5c1-0.5,2-0.9,3-1.4c2-0.9,4-1.7,6-2.5l-5.3-14c-2.3,0.9-4.6,1.8-6.9,2.9
							c-1.1,0.5-2.3,1-3.4,1.6l-3.3,1.7L545.4,538z"/>
					</g>
					<polygon class="st3" points="551,526.4 551.6,527.8 554,526.9 553.5,525.5 					"/>
					<polygon class="st3" points="546.8,528.3 547.4,529.7 549.8,528.6 549.2,527.3 					"/>
					<polygon class="st3" points="542.6,530.4 543.3,531.7 545.6,530.5 544.9,529.2 					"/>
				</g>
			</g>
			<g>
				<g>
					<g>
						<path class="st2" d="M557.3,532.6c1-0.4,2-0.8,3.1-1.1l3.1-1l3.1-0.9c1-0.3,2.1-0.6,3.2-0.8l-3.6-14.6c-1.2,0.3-2.4,0.6-3.6,1
							l-3.6,1l-3.5,1.2c-1.2,0.4-2.4,0.8-3.5,1.3L557.3,532.6z"/>
					</g>
					<path class="st3" d="M564.3,521.9l0.4,1.4c0.8-0.2,1.6-0.5,2.5-0.7l-0.4-1.5C566,521.4,565.1,521.6,564.3,521.9z"/>
					<polygon class="st3" points="559.8,523.2 560.3,524.6 561.5,524.2 562.7,523.9 562.3,522.4 561.1,522.8 					"/>
					<path class="st3" d="M555.4,524.7l0.5,1.4c0.8-0.3,1.6-0.6,2.4-0.8l-0.5-1.4C557.1,524.2,556.2,524.4,555.4,524.7z"/>
				</g>
			</g>
			<g>
				<g>
					<g>
						<path class="st2" d="M569.7,528.7c2.1-0.5,4.2-1,6.4-1.4l3.2-0.6l3.2-0.4l-1.8-14.9l-3.7,0.5c-1.2,0.2-2.4,0.4-3.7,0.6
							c-2.4,0.4-4.9,1-7.3,1.5L569.7,528.7z"/>
					</g>
					<polygon class="st3" points="578,518.9 578.2,520.4 580.8,520.1 580.6,518.6 					"/>
					<polygon class="st3" points="573.4,519.7 573.7,521.2 576.2,520.7 576,519.3 					"/>
					<polygon class="st3" points="568.8,520.7 569.2,522.2 571.7,521.6 571.4,520.1 					"/>
				</g>
			</g>
			<g>
				<g>
					<g>
						<path class="st2" d="M582.6,526.4c2.2-0.3,4.3-0.4,6.5-0.6c2.2-0.2,4.4-0.1,6.5-0.2v-15c-2.5,0.1-5,0.1-7.4,0.2
							c-2.5,0.2-4.9,0.3-7.4,0.7L582.6,526.4z"/>
					</g>
					<polygon class="st3" points="591.9,517.7 592,519.2 594.6,519.1 594.5,517.6 					"/>
					<path class="st3" d="M587.3,517.9l0.1,1.5c0.9-0.1,1.7-0.1,2.6-0.2l-0.1-1.5C589,517.8,588.1,517.8,587.3,517.9z"/>
					<path class="st3" d="M582.7,518.3l0.2,1.5c0.8-0.1,1.7-0.2,2.6-0.2l-0.1-1.5C584.4,518.1,583.5,518.2,582.7,518.3z"/>
				</g>
			</g>
		</g>
	</g>
</g>
</svg>
